<svg class="border shadow-md" viewBox="0 0 821.92 821.92" style="width: 821.92px; height: 821.92px;" xmlns="http://www.w3.org/2000/svg" preserveAspectRatio="none"><rect class="bg" id="bg" x="0" y="0" width="821.92" height="821.92" fill="#ffffff"/><g transform="translate(-513.6999999999999 308.22) scale(1)"><path d="M870.5,720.5Q753,927,524.5,908.5Q296,890,165,702Q34,514,181.5,353.5Q329,193,518,185.5Q707,178,847.5,346Q988,514,870.5,720.5Z" fill="#EE5622" stroke="none" stroke-width="10"/></g><g transform="translate(308.22 -513.6999999999999) scale(1)"><path d="M844,676Q701,838,530,810Q359,782,234.5,648Q110,514,220.5,356Q331,198,533.5,163Q736,128,861.5,321Q987,514,844,676Z" fill="#EE5622" stroke="none" stroke-width="10"/></g></svg>