<?xml version="1.0" standalone="no"?>
<svg viewBox="0 0 200 200" xmlns="http://www.w3.org/2000/svg">
  <path fill="#EE5621" d="M32.7,-56.3C46.7,-48.6,65.2,-48.5,70.3,-40.3C75.5,-32.2,67.3,-16.1,63.1,-2.4C58.8,11.2,58.6,22.4,54.5,32.4C50.4,42.5,42.6,51.3,32.8,54.1C23.1,56.9,11.6,53.7,0.2,53.4C-11.2,53,-22.4,55.6,-32.9,53.2C-43.4,50.9,-53.2,43.6,-63.6,33.9C-74.1,24.2,-85.3,12.1,-87.4,-1.2C-89.4,-14.5,-82.3,-28.9,-72.6,-40C-62.9,-51.1,-50.6,-58.8,-38.1,-67.4C-25.6,-75.9,-12.8,-85.4,-1.7,-82.5C9.4,-79.5,18.7,-64.1,32.7,-56.3Z" transform="translate(100 100)" />
</svg>
